<svg width="1240" height="320" viewBox="0 0 1240 320" fill="none" xmlns="http://www.w3.org/2000/svg">
  <g>
    <rect x="24" y="24" width="272" height="272" rx="72" fill="#0F3D35"/>
    <path d="M72 188C94 166 116 166 138 188C160 210 182 210 204 188C217 175 230 169 244 171" stroke="#7ED9BD" stroke-width="18" stroke-linecap="round"/>
    <path d="M90 152L160 93L230 152" stroke="#F5C16C" stroke-width="20" stroke-linecap="round" stroke-linejoin="round"/>
    <path d="M109 145V216C109 226.493 117.507 235 128 235H192C202.493 235 211 226.493 211 216V145" stroke="#F6F1E8" stroke-width="20" stroke-linecap="round" stroke-linejoin="round"/>
    <path d="M142 235V190C142 180.059 150.059 172 160 172C169.941 172 178 180.059 178 190V235" fill="#F6F1E8"/>
    <circle cx="160" cy="141" r="13" fill="#E99F3E"/>
  </g>
  <text x="340" y="154" fill="#0F3D35" font-family="Inter, ui-sans-serif, system-ui, -apple-system, BlinkMacSystemFont, 'Segoe UI', sans-serif" font-size="96" font-weight="800" letter-spacing="-5">Hafa Homes</text>
  <text x="346" y="216" fill="#53645F" font-family="Inter, ui-sans-serif, system-ui, -apple-system, BlinkMacSystemFont, 'Segoe UI', sans-serif" font-size="34" font-weight="600" letter-spacing="1.8">FIND YOUR HOME ON GUAM</text>
</svg>
